<svg xmlns="http://www.w3.org/2000/svg" viewBox="0 0 48 48" id="portfolio"><rect width="39" height="33" x="4.5" y="10" fill="#e6f3fc" rx="3"></rect><path fill="#a4d2ff" d="M34,12H14a1,1,0,0,1-.98047-1.19629l.83936-4.19629A2.00444,2.00444,0,0,1,15.81982,5H32.18018a2.00444,2.00444,0,0,1,1.96093,1.60742l.83936,4.19629A1,1,0,0,1,34,12ZM15.21973,10H32.78027l-.60009-3H15.81982Z"></path><path fill="#a4d2ff" d="M42,10H6a3.00328,3.00328,0,0,0-3,3v8.51172a2.9826,2.9826,0,0,0,2.13818,2.874l17.99805,5.39844a2.98438,2.98438,0,0,0,1.72559.001L42.8623,24.38574A2.98273,2.98273,0,0,0,45,21.51172V13A3.00328,3.00328,0,0,0,42,10Z"></path><rect width="6" height="6.857" x="21" y="24.071" fill="#55baf2" rx=".857"></rect><path fill="#1e81ce" d="M40.5 43H7.5a3.00328 3.00328 0 01-3-3V23.4502a1 1 0 012 0V40a1.001 1.001 0 001 1h33a1.001 1.001 0 001-1V23.4502a1 1 0 112 0V40A3.00328 3.00328 0 0140.5 43zM34 12H14a1 1 0 01-.98047-1.19629l.83936-4.19629A2.00444 2.00444 0 0115.81982 5H32.18018a2.00444 2.00444 0 011.96093 1.60742l.83936 4.19629A1 1 0 0134 12zM15.21973 10H32.78027l-.60009-3H15.81982z"></path><path fill="#1e81ce" d="M21.00049,29.09961a1.01245,1.01245,0,0,1-.2876-.042l-15.5-4.64942A3.02087,3.02087,0,0,1,3,21.50977V13a3.00328,3.00328,0,0,1,3-3H42a3.00328,3.00328,0,0,1,3,3v8.50977a2.99545,2.99545,0,0,1-2.13818,2.876L42.5,23.4502l-.28174-.959.06983-.02148a1.00324,1.00324,0,0,0,.71191-.96V13a1.001,1.001,0,0,0-1-1H6a1.001,1.001,0,0,0-1,1v8.50977a1.00825,1.00825,0,0,0,.72217.96386l15.56494,4.668a1,1,0,0,1-.28662,1.958Z"></path><path fill="#1e81ce" d="M26.99951,29.09961a1,1,0,0,1-.28662-1.958l10.97656-3.293a1.00011,1.00011,0,1,1,.57422,1.916l-10.97656,3.293A1.01245,1.01245,0,0,1,26.99951,29.09961Z"></path><path fill="#1e81ce" d="M26 32H22a2.00229 2.00229 0 01-2-2V25a2.00229 2.00229 0 012-2h4a2.00229 2.00229 0 012 2v5A2.00229 2.00229 0 0126 32zm-4-7v5h4.00146L26 25zM13 39H11a1 1 0 010-2h2a1 1 0 010 2zM19 39H17a1 1 0 010-2h2a1 1 0 010 2zM25 39H23a1 1 0 010-2h2a1 1 0 010 2zM31 39H29a1 1 0 010-2h2a1 1 0 010 2zM37 39H35a1 1 0 010-2h2a1 1 0 010 2z"></path></svg>